<svg t="1613632462817" class="icon" viewBox="0 0 1063 1024" version="1.1" xmlns="http://www.w3.org/2000/svg" p-id="6735" width="200" height="200"><path d="M958.238143 347.566079l-337.328491 183.252807c-31.22464 16.892019-50.164176 50.164176-50.164177 87.531369V972.570765c0 37.879072 37.367193 62.96116 68.591833 45.557262l337.328492-183.252807c30.200882-16.892019 50.164176-50.164176 50.164176-87.531369V394.1471c0-39.41471-37.367193-63.473039-68.591833-46.581021zM444.311276 529.795127L106.982784 347.566079c-31.22464-16.892019-68.591833 7.67819-68.591833 45.557262v355.756148c0 37.367193 18.939536 70.63935 50.164177 87.531369l337.840371 182.229049c31.22464 16.892019 68.591833-8.19007 68.591832-46.581021v-354.73239c-0.511879-37.367193-19.451415-70.63935-50.676055-87.531369z" p-id="6736"></path><path d="M927.013503 264.641624c15.86826-8.19007 23.54645-23.034571 22.010812-36.343434 1.535638-14.332622-6.142552-28.153364-22.010812-36.343434L583.542459 12.285104C568.186079 4.095035 550.270301 0 531.842645 0s-36.343434 3.583155-51.699815 12.285104L136.671786 190.930998c-15.86826 8.19007-23.034571 23.034571-22.010812 36.343433-0.511879 14.332622 6.142552 28.665244 22.010812 37.367193l343.471044 178.645893c15.356381 8.19007 33.272158 12.285104 51.699815 12.285105s36.343434-3.583155 51.699814-12.285105l343.471044-178.645893z" opacity=".6" p-id="6737"></path></svg>