<svg t="1613640170444" class="icon" viewBox="0 0 1024 1024" version="1.1" xmlns="http://www.w3.org/2000/svg" p-id="20732" data-spm-anchor-id="a313x.7781069.0.i21" width="200" height="200"><path d="M870.405632 165.9904c0 13.056-2.816 25.1392-7.5776 35.1744-1.8432 3.9936-6.6048 4.864-9.3696 1.6384-7.5776-8.704-17.3056-13.8752-27.904-13.8752H147.256832c-10.6496 0-20.3264 5.2224-28.0576 13.9776-2.7648 3.1232-7.4752 2.2528-9.3696-1.6896A83.3024 83.3024 0 0 1 102.405632 165.9904C102.405632 130.816 122.424832 102.4 147.256832 102.4h678.2976C850.437632 102.4 870.405632 130.816 870.405632 165.9904"  p-id="20733"></path><path d="M583.839232 142.5408H386.924032c-14.2848 0-23.552-12.6464-17.2032-23.4496L400.696832 66.6112a19.8144 19.8144 0 0 1 17.2032-9.0112h134.9632c7.2704 0 13.9264 3.4816 17.2032 9.0112l30.976 52.48c6.3488 10.8032-2.9184 23.4496-17.2032 23.4496" p-id="20734"></path><path d="M563.205632 767.6928V358.5536L614.815232 358.4v409.2928H563.205632zM358.405632 768V358.4h51.2v409.6H358.405632zM186.629632 244.5824c-18.432 0-33.792 14.2336-32.9728 30.8736l21.4016 542.4128C179.359232 906.0352 199.532032 921.6 295.480832 921.6h390.7584c95.232 0 108.5952-18.0224 111.5136-103.7312l21.4016-542.4128c0.768-16.64-14.3872-30.8736-32.9728-30.8736H186.629632z" p-id="20735" data-spm-anchor-id="a313x.7781069.0.i20" class="selected"></path></svg>