<svg class="icon" width="200px" height="200.00px" viewBox="0 0 1024 1024" version="1.1" xmlns="http://www.w3.org/2000/svg"><path  d="M357.376 647.168q0 19.456-16.896 31.744t-42.496 23.552-55.296 25.6-54.272 38.912l-19.456 0q-41.984 0-73.216-8.704t-52.736-23.04-32.256-32.256-10.752-36.352q0-21.504 22.528-34.816t49.664-24.576 49.664-23.552 22.528-31.744-12.288-35.84-27.136-37.376-27.136-49.152-12.288-72.192q0-31.744 6.656-61.44t19.968-52.224 33.792-35.84 48.128-13.312q36.864 0 61.44 12.288-6.144 36.864-6.144 76.8 0 64.512 10.752 109.568t27.136 77.824q-15.36 20.48-28.672 38.4t-13.312 42.496q0 13.312 14.336 23.04t34.304 18.432 42.496 17.92 39.936 19.456q1.024 5.12 1.024 16.384zM865.28 551.936q0 11.264 11.776 20.48t29.184 17.408 38.4 15.872 38.4 16.384 29.184 19.456 11.776 25.088q0 22.528-15.36 39.936t-40.96 29.184-58.88 17.92-68.096 7.168q-28.672-19.456-61.44-30.208t-61.952-19.456-50.176-19.456-25.088-31.232q4.096-19.456 26.624-31.744t48.64-23.04 47.104-23.04 20.992-30.72q0-21.504-16.384-39.424t-33.792-41.472q16.384-35.84 27.136-84.992t10.752-115.712q0-14.336-1.536-28.672t-3.584-28.672q26.624-18.432 48.128-18.432 48.128 0 76.8 15.872t43.52 39.424 19.456 50.688 4.608 49.664q0 46.08-14.848 74.24t-32.768 48.64-32.768 37.888-14.848 40.96zM577.536 660.48q0 21.504 18.944 37.888t47.616 31.232 62.464 28.16 62.464 29.184 47.616 34.816 18.944 44.544q0 17.408-28.672 33.28t-75.776 29.184-108.544 20.992-125.952 7.68q-73.728 0-130.56-7.68t-95.232-20.48-58.368-29.184-19.968-32.768q0-25.6 18.944-44.544t47.616-34.304 61.952-28.16 61.952-27.136 47.616-31.232 18.944-40.448-9.728-44.032-24.576-41.472-32.256-45.568-32.256-55.296-24.576-70.656-9.728-92.16q0-113.664 42.496-180.736t131.584-67.072q74.752 0 117.76 22.528t65.024 57.856 27.648 77.824 5.632 83.456q0 55.296-9.728 95.232t-24.064 69.632-30.72 52.736-30.72 44.032-24.064 43.008-9.728 49.664z" /></svg>