<?xml version="1.0" standalone="no"?><!DOCTYPE svg PUBLIC "-//W3C//DTD SVG 1.1//EN" "http://www.w3.org/Graphics/SVG/1.1/DTD/svg11.dtd"><svg t="1600425469108" class="icon" viewBox="0 0 1024 1024" version="1.1" xmlns="http://www.w3.org/2000/svg" p-id="3233" xmlns:xlink="http://www.w3.org/1999/xlink" width="200" height="200"><defs><style type="text/css"></style></defs><path d="M788.93224 656.368038c0-63.649646-17.505699-93.169983-46.263673-116.232235-13.755282-11.070126-31.259958-22.140253-66.270333-40.58944-38.762839-20.296255-77.523631-38.744419-117.537973-58.115606-53.766554-24.908296-96.27981-44.279483-107.533109-61.807694-3.752464-6.456039-6.252401-16.604166-6.252401-33.208333 0-30.444383-1.25048-64.573691 55.017034-64.573691 26.257014 0 56.268538 2.765997 62.519915 25.828248 2.499937 9.226129 2.499937 11.992125 2.499937 26.752294l0 47.969525 202.564485 0c1.248434-49.813522 6.252401-120.846322-38.762839-162.357761-41.262776-39.667441-110.035092-44.279483-171.304528-47.969525L557.608757 64.131623 453.826066 64.131623 453.826066 172.061774c-61.269435 3.690042-127.537721 11.072173-170.053024 48.891524-42.513256 36.900422-47.51313 86.713944-47.51313 132.838448 0 66.421782 17.503653 95.018074 47.51313 119.002324 26.25906 21.216207 68.772316 42.434461 76.275197 46.124504 36.260855 18.450211 72.522734 37.82242 110.035092 56.271608 52.516074 26.754341 87.526449 42.434461 98.779747 63.651692 6.252401 11.992125 6.252401 30.442336 6.252401 33.210379 0 23.062252 3.752464 57.193607-71.272253 57.193607-43.763736 0-58.767452-14.760169-63.769372-29.520337-5.002944-11.992125-3.752464-25.830295-3.752464-29.520337l0-46.124504L225.00559 624.080681c-2.499937 94.094028 2.501984 136.529513 52.518121 172.503842 47.514153 33.210379 107.533109 38.745443 128.789225 40.591487 15.005762 1.843998 31.259958 3.690042 47.514153 4.612041l0 118.078279 103.782691 0L557.609781 841.790098c63.771419-5.536087 121.28839-11.994172 170.053024-45.203528C782.679839 759.688195 788.93224 708.027605 788.93224 656.368038z" p-id="3234" fill="#f4516c"></path></svg>