<svg class="icon" width="200px" height="200.00px" viewBox="0 0 1024 1024" version="1.1" xmlns="http://www.w3.org/2000/svg"><path  d="M597.504 803.7888c0-113.7664 92.5696-206.336 206.336-206.336 5.3248 0 10.0352 0 14.7456 0.6144-30.6688-71.3216-76.6464-142.6432-128.512-201.0112-15.9232-18.2784-39.4752-28.3136-63.6928-28.3136H306.2784c-22.9888 0-45.4144 9.4208-61.2864 25.9584-100.8128 105.5232-193.3824 255.8464-193.3824 365.5168 0 96.6656 97.28 218.7264 216.9344 218.7264h371.968c15.9232 0 30.6688-2.3552 45.4144-5.888-53.6576-37.2224-88.4224-99.072-88.4224-169.2672z m-5.3248-274.1248l-64.256 116.736c-5.888 10.0352 1.792 22.9888 13.568 22.9888h18.2784c8.2432 0 15.3088 7.0656 15.3088 15.3088 0 8.2432-7.0656 15.3088-15.3088 15.3088h-45.9776c-8.8576 0-15.9232 7.0656-16.4864 15.9232v7.68c0 8.2432 7.0656 15.3088 15.3088 15.3088h46.592c8.2432 0 15.3088 7.0656 15.3088 15.3088 0 4.1472-1.792 8.2432-4.7104 11.2128-2.9696 2.9696-7.0656 4.7104-11.2128 4.7104H512c-8.2432 0-15.3088 7.0656-15.3088 15.3088v39.4752c0 8.2432-7.0656 15.3088-15.3088 15.3088H453.632c-8.2432 0-15.3088-7.0656-15.3088-15.3088v-38.912c0-8.2432-7.0656-15.3088-15.3088-15.3088h-45.9776c-8.2432 0-15.3088-7.0656-15.3088-15.3088 0-4.1472 1.792-8.2432 4.7104-11.2128s7.0656-4.7104 11.2128-4.7104h45.9776c8.2432 0 15.3088-7.0656 15.3088-15.3088v-7.68c0-8.8576-7.0656-16.4864-16.4864-16.4864h-45.4144c-8.2432 0-15.3088-7.0656-15.3088-15.3088 0-8.2432 7.0656-15.3088 15.3088-15.3088h17.664c11.776 0 18.8416-12.3904 13.568-22.9888l-64.256-116.736c-5.888-10.0352 1.792-22.9888 13.568-22.9888h30.6688c5.888 0 11.2128 3.5328 13.568 8.2432l52.48 104.3456c5.888 11.2128 21.8112 11.2128 27.6992 0l52.48-104.3456c2.3552-5.3248 7.68-8.2432 13.568-8.2432h30.6688c11.6736 0.6144 19.3536 13.0048 13.4656 22.9888zM725.4016 177.152c-1.1776 8.2432-1.1776 16.4864-5.888 30.0544-4.1472 12.3904-7.68 27.136-13.568 37.12-11.2128 17.664-24.1664 35.3792-37.12 50.688s-32.4096 24.1664-53.0432 24.1664h-307.712c-20.0192 0-39.4752-8.8576-52.48-24.1664-13.568-15.9232-25.9584-33.024-37.12-50.688-5.888-10.5984-10.0352-24.7808-13.568-37.12-4.7104-13.568-5.3248-21.8112-5.888-30.0544-3.5328-31.232 11.2128-54.8352 26.5216-73.1136 15.9232-17.664 28.8768-22.9888 56.576-30.6688 1.1776 0 11.776-4.1472 45.9776 2.9696 2.9696 0.6144 1.792 0 18.2784 5.3248 4.1472 1.1776 4.1472 1.792 12.9536 2.9696 14.7456-14.7456 32.4096-27.6992 60.1088-34.2016 12.3904-2.9696 28.3136-4.7104 44.2368-5.3248 15.3088 0.6144 31.232 2.3552 44.2368 5.3248 27.136 6.5024 45.4144 19.456 60.1088 34.2016 8.8576-1.792 8.8576-2.3552 12.9536-2.9696 16.4864-5.3248 15.3088-4.7104 18.2784-5.3248 34.2016-6.5024 44.8-2.9696 45.9776-2.9696 27.6992 7.68 40.6528 12.9536 56.576 30.6688 12.3904 17.7152 27.136 41.8816 23.6032 73.1136zM796.16 625.7664c-97.28 0-176.2816 79.0016-176.2816 176.2816s79.0016 176.2816 176.2816 176.2816 176.2816-79.0016 176.2816-176.2816-79.0528-176.2816-176.2816-176.2816z m17.1008 268.8512v-57.7536h-152.1152v-68.9664h152.1152V710.144l118.4768 92.5696-118.4768 91.904z" /></svg>