<?xml version="1.0" standalone="no"?><!DOCTYPE svg PUBLIC "-//W3C//DTD SVG 1.1//EN" "http://www.w3.org/Graphics/SVG/1.1/DTD/svg11.dtd"><svg class="icon" width="200px" height="200.00px" viewBox="0 0 1024 1024" version="1.1" xmlns="http://www.w3.org/2000/svg"><path fill="#ffffff" d="M98.88 219.824a107.824 106.064 90 1 0 212.128 0 107.824 106.064 90 1 0-212.128 0Z"  /><path fill="#ffffff" d="M238.8 525.2c78.704 0 154.816 193.904 261.92 193.904 107.12 0 140.832-326.592 262.352-326.592 121.536 0 214.8 260.384 247.296 372.896 32.512 112.512-4.672 148.32-168.928 148.32-164.272 0-685.904-7.024-751.296-7.024-65.408 0-104.8-49.28-60.192-144.24 44.592-94.976 130.144-237.28 208.848-237.28z"  /></svg>