<?xml version="1.0" standalone="no"?><!DOCTYPE svg PUBLIC "-//W3C//DTD SVG 1.1//EN" "http://www.w3.org/Graphics/SVG/1.1/DTD/svg11.dtd"><svg class="icon" width="200px" height="200.00px" viewBox="0 0 1024 1024" version="1.1" xmlns="http://www.w3.org/2000/svg"><path  d="M943.1 681c-6.8-187.4-167.6-312.2-243.3-360.8 25.1-28 50.3-67.5 56.3-108.8 4.3-30-2.3-57.3-19.3-79.2-21.7-27.8-47.4-33.7-65.2-33.7-22.4 0-43 9.2-59 19.4C593.9 93 561.8 64.7 512 64.5h-1.7c-48.9 0.7-80.4 28.7-98.9 53.4-16-10.2-36.6-19.4-58.9-19.4-17.8 0-43.5 5.8-65.2 33.6-17 21.8-23.7 49.2-19.4 79.3 6 41.3 31.2 80.7 56.3 108.7C248.5 368.8 87.7 493.7 80.9 681c-3.3 92.6 18.8 164.3 65.8 213.1 56.9 59 132.8 65.4 162.7 65.4h405.2c30 0 105.8-6.4 162.7-65.4 47-48.8 69.2-120.4 65.8-213.1z m-285.9 12.9c-5.8 5.8-13.6 9-21.8 9h-92.5v82.3c0 17-13.8 30.8-30.8 30.8s-30.8-13.8-30.8-30.8v-82.3h-92.5c-17 0-30.9-13.8-30.9-30.9 0-17 13.8-30.9 30.9-30.9h92.5v-61.7h-92.5c-17 0-30.9-13.8-30.9-30.9 0-17 13.8-30.9 30.9-30.9h65.1l-61.8-61.8c-11.8-12.1-11.6-31.4 0.3-43.3 11.9-11.9 31.2-12.1 43.3-0.3l76.5 76.5 76.5-76.5c12.1-11.8 31.4-11.6 43.3 0.3 11.9 11.9 12.1 31.2 0.3 43.3l-61.8 61.8h65.1c16.8 0.3 30.2 14.1 30.2 30.9 0 16.8-13.4 30.5-30.2 30.9h-92.5v61.7h92.5c8.2 0 16 3.2 21.8 9 5.8 5.8 9 13.6 9 21.8-0.1 8.3-3.4 16.2-9.2 22z" /></svg>