<?xml version="1.0" standalone="no"?><!DOCTYPE svg PUBLIC "-//W3C//DTD SVG 1.1//EN" "http://www.w3.org/Graphics/SVG/1.1/DTD/svg11.dtd"><svg class="icon" width="200px" height="200.00px" viewBox="0 0 1024 1024" version="1.1" xmlns="http://www.w3.org/2000/svg"><path  d="M300.10633482 302.90981925h322.75023643c21.80042903 0 42.73189925-9.16169008 56.7250489-25.8830791 33.31413333-39.63350282 64.9012717-88.18354252 71.95731437-131.65211497 14.24073008-87.19200711-23.03469037-131.41060267-131.40453452-131.41060266s-71.70973392 71.0944237-113.81782755 76.91135051c-31.33713067 4.33629867-30.21937778-37.02905363-79.51215882-76.78513303-35.42463525-28.48874192-75.05328355 51.89358933-121.87268741 52.38875022-54.61576059 0.74516859-131.27831703-14.36816118-131.27831704 78.89442133 0 37.65285925 32.94033541 88.55248592 68.98270815 130.78801067 14.49073778 16.842752 35.29841778 26.74839703 57.47021749 26.74839703z m302.93894636 520.67017008c0-122.49042489 99.32830341-221.8187283 221.81508741-221.8187283 5.44798341 0 10.77703111 0.24758045 16.10365156 0.622592-32.94640355-76.54119348-82.48676503-153.32632652-138.2190649-216.49089421-17.21654992-19.56977778-42.23673837-30.46695822-68.23875317-30.46695823H290.07204503c-24.89761185 0-48.922624 10.03186252-66.14160118 27.98751289-108.24241303 113.32266667-208.06709097 275.20022755-208.06709096 393.2281363 0 104.03354548 104.53113363 235.44414815 233.58244029 235.44414814h399.91644919c16.842752 0 33.19519763-2.23065125 49.0452006-6.31936947-57.58915318-40.00487348-95.36216178-106.63556741-95.36216179-182.18643912z m-5.4479834-294.51514311l-69.23757037 125.58032593c-6.06572089 11.02461155 1.98307082 24.65003141 14.48952414 24.6500314h19.6972089c9.16169008 0 16.59395792 7.43226785 16.59395792 16.59395793 0 9.16775822-7.43226785 16.6012397-16.59395792 16.6012397h-49.42021215c-9.65685097 0-17.33791289 7.67378015-17.45806222 17.3379129v8.17015467c0 9.16775822 7.4261997 16.6012397 16.59395792 16.6012397h50.15688533c9.16775822 0 16.6012397 7.43226785 16.6012397 16.5927443 0 4.45766163-1.73549037 8.67259733-4.83145955 11.7685665-3.09596918 3.09596918-7.30605037 4.82539141-11.76856651 4.82539142h-50.15688534c-9.16775822 0-16.59395792 7.43226785-16.59395793 16.6012397v42.22824296c0 9.16775822-7.43226785 16.6012397-16.6012397 16.6012397h-30.09073303c-9.16775822 0-16.6012397-7.43226785-16.60123972-16.6012397v-42.10809363c0-9.16169008-7.43226785-16.59517155-16.59395792-16.59517155h-49.66779258c-9.16169008 0-16.5927443-7.43226785-16.5927443-16.5927443 0-4.46372978 1.73549037-8.67259733 4.83145955-11.76856652 3.09596918-3.09596918 7.30362311-4.83145955 11.76128475-4.83145955h49.66779258c9.16169008 0 16.59395792-7.43226785 16.72138904-16.59395793l0.12014933-8.0487917c0.12743111-9.66291911-7.6798483-17.46413037-17.45806222-17.46413037h-49.05126873c-9.16169008 0-16.5927443-7.43226785-16.5927443-16.59395793 0-9.16775822 7.43105422-16.6012397 16.5927443-16.6012397h19.07461688c12.63267082 0 20.56131318-13.6193517 14.49559229-24.64274963l-69.23757037-125.58639407c-6.06572089-11.02461155 1.98307082-24.64274963 14.49073778-24.64274963h32.94640356c6.31936948 0 12.01614697 3.59355733 14.73710459 9.16169007l56.35731911 112.45856236c6.06572089 12.13750992 23.52985125 12.13750992 29.72300326 0l56.3488237-112.45856236c2.84838875-5.56813275 8.54516622-9.16169008 14.73831823-9.16169007h32.94640355c12.87661037 0.11772208 20.92782933 13.49434785 14.86210845 24.5189594z m0 0"  /><path d="M816.93658075 632.35565037c-104.90371792 0-189.86386015 85.08757333-189.86386016 189.86386015 0 104.89886342 85.08757333 189.86628741 189.86386016 189.8662874 104.89886342 0 189.85900563-85.08757333 189.85900562-189.8662874 0-104.90371792-85.08150518-189.86386013-189.85900562-189.86386015z m135.86340979 228.35048296L812.67795437 860.70613333a10.17507082 10.17507082 0 0 0-10.17507082 10.17507082l0 41.21243496c0 8.55366162-9.91414045 13.29045809-16.56847168 7.91529244l-111.26070995-89.87412858c-5.04141748-4.07294103-5.04141748-11.75764387 0-15.83058489l111.26313718-89.87291497c6.65433126-5.37516563 16.5684717-0.63836918 16.56847172 7.91529244l0 41.21243497a10.17507082 10.17507082 0 0 0 10.17507081 10.17507081l140.12082252 0a10.17507082 10.17507082 0 0 1 10.17507083 10.17507082l-1e-8 56.623104a10.17628445 10.17628445 0 0 1-10.17628443 10.17385718z"  /></svg>