<?xml version="1.0" standalone="no"?><!DOCTYPE svg PUBLIC "-//W3C//DTD SVG 1.1//EN" "http://www.w3.org/Graphics/SVG/1.1/DTD/svg11.dtd"><svg t="1600681725427" class="icon" viewBox="0 0 1024 1024" version="1.1" xmlns="http://www.w3.org/2000/svg" p-id="22028" xmlns:xlink="http://www.w3.org/1999/xlink" width="200" height="200"><defs><style type="text/css"></style></defs><path d="M848 864h-640c-21.36064 0-41.45664-10.60864-56.576-25.728-15.104-15.08864-23.424-37.47328-23.424-58.84928V320h32c0 16 4.992 24.87808 14.06464 33.95072a47.6928 47.6928 0 0 0 33.93536 14.04928h640c12.81536 0 24.87808 2.70336 33.93536 11.776 9.07264 9.05728 14.06464 18.816 14.06464 31.64672v400c0 12.81536-5.00736 27.16672-14.06464 36.224-9.05728 9.05728-21.12 16.35328-33.93536 16.35328zM160 379.45344v399.98464c0 12.83072 4.992 27.16672 14.04928 36.224 9.07264 9.05728 21.13536 16.33792 33.95072 16.33792h640c4.27008 0 8.28928-3.95264 11.31008-6.97856s4.68992-9.32864 4.68992-13.59872V411.42272c0-4.27008-1.664-6.00064-4.68992-9.02144-3.02592-3.02592-7.04-2.40128-11.31008-2.40128h-640c-17.536 0-34.22208-10.17344-48-20.54656z" fill="" p-id="22029"></path><path d="M816 400H208c-21.36064 0-41.45664-10.60864-56.576-25.71264C136.32 359.168 128 337.93536 128 316.57472s8.32-39.74656 23.424-54.85056c15.11936-15.11936 35.21536-21.72928 56.576-21.72928h256a16.00512 16.00512 0 0 1 0 32h-256c-12.81536 0-24.87808 2.70336-33.95072 11.776-9.05728 9.05728-14.04928 19.968-14.04928 32.79872s4.992 26.59328 14.06464 35.66592c9.05728 9.05728 21.12 15.75936 33.93536 15.75936h608a16 16 0 1 1 0 32.00512zM800 347.42272a15.99488 15.99488 0 0 1-16-16v-48c0-4.27008-1.664-6.00064-4.68992-9.02144-3.02592-3.02592-7.04-2.40128-11.31008-2.40128h-80a15.99488 15.99488 0 1 1 0-32H768c12.81536 0 24.87808 2.70336 33.93536 11.776 9.07264 9.05728 14.06464 18.816 14.06464 31.64672v48a15.99488 15.99488 0 0 1-16 16z" fill="" p-id="22030"></path><path d="M231.12192 393.75872l-14.23872-28.65664 393.63072-195.51744a48.09728 48.09728 0 0 1 38.06208-2.01728 48.23552 48.23552 0 0 1 27.52 26.35264l75.648 179.44064-29.50144 12.416-75.63264-179.42528a15.90272 15.90272 0 0 0-9.16992-8.78592 15.90272 15.90272 0 0 0-12.672 0.67072L231.12192 393.75872zM896 672h-208c-21.376 0-41.472-10.60864-56.576-25.728-15.08864-15.08864-23.424-36.32128-23.424-57.69728s8.33536-39.76192 23.43936-54.85056c15.08864-15.11936 35.18464-21.72928 56.56064-21.72928H896v160.00512z m-208-128c-12.83072 0-24.87808 2.70336-33.92 11.776-9.088 9.05728-14.08 19.968-14.08 32.79872s4.992 26.59328 14.06464 35.63008c9.05728 9.088 21.10464 15.79008 33.93536 15.79008h176v-96l-176 0.00512z" fill="" p-id="22031"></path></svg>