<?xml version="1.0" standalone="no"?><!DOCTYPE svg PUBLIC "-//W3C//DTD SVG 1.1//EN" "http://www.w3.org/Graphics/SVG/1.1/DTD/svg11.dtd"><svg t="1600680024441" class="icon" viewBox="0 0 1024 1024" version="1.1" xmlns="http://www.w3.org/2000/svg" p-id="6663" xmlns:xlink="http://www.w3.org/1999/xlink" width="200" height="200"><defs><style type="text/css"></style></defs><path d="M579.584 375.808l0 17.40799999c0 4.09600001 3.072 8.192 7.168 9.21600001 22.528 4.096 40.96 12.288 56.31999999 26.624 10.24 10.24 17.408 23.552 21.50400002 38.912 4.096 16.384-8.192 31.744-24.57600001 31.744l-1.024 0c-12.288 0-22.528-8.192-24.576-19.456-2.048-10.24-6.144-17.408-13.312-23.552-10.23999999-9.216-22.528-13.312-37.888-13.312-16.384 0-28.672 4.09600001-36.864 11.26399999-8.192 7.168-13.312 17.408-13.312 30.72000001 0 12.288 4.096 22.528 12.28800001 30.72s21.504 15.36 39.93599999 21.504c30.72 10.24 53.248 22.528 68.608 36.864s22.528 34.816 22.528 59.392c0 23.552-7.168 43.008-21.504 58.368-13.312 13.312-30.72 22.528-52.224 26.624-4.096 1.024-7.168 4.096-7.16800001 9.216l1e-8 22.528c0 9.21600001-7.168 17.408-17.408 17.408l-1.024 0c-9.21600001 0-17.408-7.168-17.408-17.408L539.648 727.04c0-4.09600001-3.072-8.192-7.16800001-8.192-21.504-4.096-37.888-14.336-51.19999999-29.696-8.192-10.24-14.336-23.55200001-17.408-37.888-3.072-15.36 9.216-30.72 25.6-30.72L491.52 620.544c12.288 0 22.528 8.192 25.6 20.48000001 2.048 9.216 5.12 16.384 10.24 22.52799999 8.192 10.24 19.456 16.384 32.768 16.384 14.33600001 0 25.6-4.096 32.768-11.264 7.168-8.192 11.264-18.432 11.26399999-31.744 0-12.288-4.096-22.528-11.26399999-29.69599999-8.192-8.192-21.504-15.36-41.984-22.52800001-30.72-11.264-53.248-23.55200001-67.584-37.88800001-15.35999999-14.336-22.528-33.792-22.528-59.39199999s7.168-45.056 22.528-59.392c13.312-13.312 31.744-21.504 54.272-25.6 4.096-1.024 7.168-4.096 7.168-9.216l0-17.408c0-9.21600001 7.168-17.408 17.408-17.408 9.21600001 0 17.408 7.168 17.408 17.408z m-523.26400001-148.48c9.216 6.144 22.528 3.072 27.64800001-7.168 13.312-21.504 66.56-82.94399999 100.35200001-112.64l0 471.04c0 51.2 10.24 104.448 29.69599999 150.528 18.432 46.08 48.128 90.112 84.992 128C374.784 931.84 473.088 972.8 578.56000001 972.8 795.648 972.8 972.8 795.648 972.8 578.56000001S795.648 184.32 578.56 184.32000001L481.28 184.32c-11.264 0-20.47999999 9.216-20.48 20.48s9.216 20.47999999 20.48 20.48l97.28 0C773.12 225.28 931.84 384 931.84 578.56S773.12 931.84 578.56 931.84c-94.208 0-183.296-36.864-249.856-103.424-33.792-33.792-60.416-72.704-76.79999999-114.688C234.496 671.744 225.28 624.64 225.28 578.56l0-470.016c32.768 29.696 87.04 90.112 100.352 112.64 6.144 9.216 18.432 13.312 27.648 7.168 9.216-6.144 13.312-18.432 7.168-27.648-9.216-15.35999999-38.912-51.2-67.584-81.92-61.44-65.536-79.872-65.536-88.064-65.536s-25.6 0-88.064 65.536c-28.672 30.72-58.368 66.56-67.58399999 81.92-6.144 8.192-3.072 20.48 7.16799998 26.624z" fill="" p-id="6664"></path></svg>