<?xml version="1.0" standalone="no"?><!DOCTYPE svg PUBLIC "-//W3C//DTD SVG 1.1//EN" "http://www.w3.org/Graphics/SVG/1.1/DTD/svg11.dtd"><svg class="icon" width="200px" height="200.00px" viewBox="0 0 1024 1024" version="1.1" xmlns="http://www.w3.org/2000/svg"><path fill="#ffffff" d="M996.635 688.748l1.569-9.727c4.752-2.272 8.061-7.118 8.061-12.716V641.468c1.063-0.658 1.769-1.777 1.769-3.038v-30.845c0-1.262-0.706-2.384-1.769-3.044v-48.236c0-7.037-0.382-16.182-1.109-26.806l0.005 0.005c0-2.299-0.477-7.813-0.865-12.095-5.503-58.025-18.389-143.789-34.221-188.102l-0.012-0.056a249.828 249.828 0 0 0-1.537-4.239h-0.014v-0.007a202.326 202.326 0 0 0-2.813-7.125c-7.268-17.34-14.102-28.121-30.084-28.121H755.719l-1.434-15.982c-0.067-0.769-0.76-1.409-1.537-1.409h-14.16c-0.777 0-1.464 0.641-1.537 1.409l-1.436 15.982H693.64c-7.76 0-14.102 6.35-14.102 14.108V656.36c-4.025 6.093-7.927 12.781-11.644 19.73l-29.609 0.058v-23.825h1.783c9.856 0 17.922-6.834 17.922-15.206V109.729c0-8.348-8.065-15.198-17.922-15.198H17.958c-9.864 0-17.952 6.85-17.952 15.198v618.269c0 6.863 5.48 12.436 12.301 12.607h130.842c-8.644 17.137-13.542 36.484-13.542 56.988 0 0.863 0.048 1.714 0.065 2.573-0.017 0.858-0.065 1.711-0.065 2.574 0 69.987 56.739 126.729 126.732 126.729 69.986 0 126.729-56.742 126.729-126.729 0-0.863-0.048-1.716-0.065-2.574 0.017-0.859 0.065-1.71 0.065-2.573 0-4.866-0.301-9.662-0.835-14.385h9.722v5.252c0 3.283 2.074 6.327 4.611 6.745l23.824 4.178h10.446l4.573-10.236h19.951v-3.895h6.864v-5.147h5.91v4.117h7.052c0.007 1.03 0.007 1.688 0.022 1.881 0.09 2.044 1.582 2.014 1.582 2.014h16.28c0.045 3.119 2.313 2.963 2.313 2.963h23.742l141.264 21.034c4.803 65.605 59.518 117.356 126.355 117.356 69.986 0 126.729-56.742 126.729-126.729 0-0.863-0.049-1.716-0.065-2.574 0.017-0.859 0.065-1.71 0.065-2.573 0-5.796-0.426-11.489-1.178-17.079l54.815-21.405h50.893c3.298 0 5.992-2.701 5.992-5.992V688.75h-27.36zM464.176 559.031H182.817l67.46-359.515h119.186l-51.696 275.499H479.94l-15.764 84.016z m500.519-47.964s-137.883-19.004-154.328-21.265c-16.444-2.268-25.51-10.9-25.51-19.407V334.729c0-5.2 4.262-9.46 9.455-9.46H926.77c10.723 0 15.305 7.238 20.176 18.862 16.497 39.373 27.203 140.017 27.203 159.864-0.001 8.066-2.962 8.266-9.454 7.072z" /></svg>