<svg class="icon" width="200px" height="168.14px" viewBox="0 0 1218 1024" version="1.1" xmlns="http://www.w3.org/2000/svg"><path d="M1005.6511 0.001138a77.942931 77.942931 0 0 1 67.417791 38.687002l132.559874 227.5706a78.227394 78.227394 0 0 1-6.542654 88.183608l-499.517469 625.819152a117.483323 117.483323 0 0 1-182.90987 0L17.141304 354.157885a78.227394 78.227394 0 0 1-6.542655-88.183608L142.305134 38.68814A78.79632 78.79632 0 0 1 210.576315 0.001138z m-250.043197 473.346849l-131.422022 184.332186a19.627964 19.627964 0 0 1-31.859884 0l-131.706485-184.332186A58.59943 58.59943 0 1 0 365.324323 540.481314l131.706485 184.332186a136.54236 136.54236 0 0 0 222.165799 0L850.903092 540.481314a58.59943 58.59943 0 0 0-95.295189-67.986717z" /></svg>