<svg class="icon" width="200px" height="200.00px" viewBox="0 0 1024 1024" version="1.1" xmlns="http://www.w3.org/2000/svg"><path d="M852.1 718.9h-219v230.8c0 22.4-17.9 40.5-40.2 40.9 10.7-0.1 21.5-4.3 29.4-12.7l254.3-267.2c-6.8 5.1-15.3 8.2-24.5 8.2z"  /><path  d="M551.1 949.7V700c2.5-34.4 30.5-61.6 65.2-63H852c21.1 0 38.5 16 40.7 36.6v-559c0-38.8-31.5-70.3-70.3-70.3H198.1c-38.8 0-70.3 31.5-70.3 70.3v805.8c0 38.8 31.5 70.3 70.3 70.3h394c-22.6-0.1-41-18.4-41-41zM281.7 220.6c0-22.6 18.3-41 41-41h375.7c22.6 0 41 18.3 41 41 0 22.6-18.3 41-41 41H322.6c-22.6-0.1-40.9-18.4-40.9-41z m0 179.2c0-22.6 18.3-41 41-41h375.7c22.6 0 41 18.3 41 41 0 22.6-18.3 41-41 41H322.6c-22.6-0.1-40.9-18.4-40.9-41z m240 159.1c0 22.6-18.3 41-41 41H322.6c-22.6 0-41-18.3-41-41 0-22.6 18.3-41 41-41h158.1c22.6 0.1 41 18.4 41 41z"  /></svg>