<?xml version="1.0" standalone="no"?><!DOCTYPE svg PUBLIC "-//W3C//DTD SVG 1.1//EN" "http://www.w3.org/Graphics/SVG/1.1/DTD/svg11.dtd"><svg class="icon" width="200px" height="200.00px" viewBox="0 0 1024 1024" version="1.1" xmlns="http://www.w3.org/2000/svg"><path fill="#ffffff" d="M854.855 992h-685.712c-37.871 0-68.572-28.658-68.572-64.019v-479.999c0-35.325 30.7-63.983 68.572-63.983h685.712c37.868 0 68.573 28.658 68.573 63.983v479.999c0 35.359-30.705 64.022-68.569 64.019h-0.004zM511.996 544.009c-56.82 0-102.854 42.96-102.854 95.993 0 35.428 20.828 66.064 51.43 82.67v91.342c0 27.585 23.031 49.987 51.429 49.987 28.388 0 51.43-22.402 51.43-49.987v-91.342c30.601-16.606 51.425-47.242 51.425-82.67 0-53.027-46.034-95.988-102.855-95.988l-0.006-0.004zM511.996 127.993c-113.603 0-205.714 85.951-205.714 191.989h-102.852c0-159.041 138.144-287.982 308.566-287.982 170.423 0 308.573 128.942 308.573 287.982h-102.855c0.001-106.038-92.11-191.989-205.717-191.989v0zM511.996 127.993z" /></svg>