<svg class="icon" width="200px" height="194.12px" viewBox="0 0 1055 1024" version="1.1" xmlns="http://www.w3.org/2000/svg"><path d="M468.995331 469.756046m42.624312 0l0.031976 0q42.624311 0 42.624311 42.624311l0 0.031976q0 42.624311-42.624311 42.624312l-0.031976 0q-42.624311 0-42.624312-42.624312l0-0.031976q0-42.624311 42.624312-42.624311ZM633.513023 892.353871c16.851472 27.851294 48.603866 48.923628 73.161609 43.263836 37.508115-8.633581 55.830494-44.127194 51.385797-76.71097l-5.755721-41.888859 40.929572 10.839941c31.400656 8.313819 78.981282-4.540624 92.283393-30.729154 11.255632-22.159526 0.51162-52.952633-25.00541-77.318519-33.894801-32.359942-117.224851-60.594951-247.943669-81.923095-10.744012 129.215936-2.973789 214.912226 20.944429 254.46682z m85.824195 98.167019c-53.368324 12.278871-106.1291-22.671145-134.172252-69.036676-34.022706-56.246184-41.728977-161.447974-26.060625-318.834966l2.909837-29.41813 29.3222 4.316791c158.825923 23.438575 260.702184 56.150256 308.218859 101.556499 41.569096 39.650522 60.914714 95.097301 36.356971 143.477334-21.807787 42.944074-74.08892 64.528027-121.989309 64.240241-6.587103 47.13296-38.979022 90.940392-94.585681 103.698907zM201.769997 736.149998c-21.679882 24.174028-32.136109 59.891474-19.409571 80.516142 19.889214 32.29599 60.530999 38.467402 91.132249 24.046123l38.051711-17.906688 2.20636 41.920835c1.630788 31.496584 28.554771 71.62675 58.292663 75.943541 25.580982 3.741219 52.409037-16.02009 68.205294-47.484698 20.784548-41.377239 22.383359-127.48922 2.813908-255.585988-129.120007 29.993702-210.179744 63.82455-241.292614 98.550733z m-67.469841 110.062176c-28.746629-46.525411-11.063775-106.992458 25.357149-147.634243 43.903361-48.955605 143.2535-88.574151 300.512587-122.564881l28.874534-6.235364 4.924339 29.066391c26.412364 155.6283 26.18853 261.021946-3.229599 319.602395-25.580982 50.906154-73.001728 85.856171-126.881671 77.99002-48.06027-7.03477-85.184671-49.147462-99.829783-94.042086-47.580627 8.601605-100.02164-7.994057-129.759532-56.182232z m74.856349-576.275575c-30.441369-12.88642-68.908771-11.575394-85.280599 7.03477-24.941458 28.266985-18.48226 67.405888 4.668529 91.196201l30.025678 30.889036-40.353999 15.124756c-30.185559 11.319585-60.754833 48.8277-55.86247 77.382471 4.188886 24.525767 31.656465 43.423717 67.118102 48.475961 46.845174 6.651055 130.974629-18.48226 249.222718-76.423184-68.716913-110.605772-126.306099-175.421585-169.537959-193.680011z m-142.454094 108.495341c-22.767074-41.952811-22.703122-96.088564 14.741041-138.6809 35.973256-40.833643 99.446068-42.97605 149.744674-21.711859 61.010642 25.804816 130.239175 106.384909 211.778556 242.635616l15.476494 25.868768-26.860031 13.685826c-142.518047 72.586037-244.554189 104.882027-310.07348 95.60892-57.141519-8.121962-105.713409-41.569096-114.794657-94.809515-8.121962-47.324817 21.136286-95.033349 59.987403-122.596856z m578.449959-240.109494c3.005765-32.04018-9.944607-67.022173-32.935515-76.487137-35.717446-14.741041-72.202322 3.64529-88.254388 32.775634l-20.049095 36.484875-26.476317-32.168085c-20.368857-24.717624-66.54253-41.79293-93.306632-28.13908-22.671145 11.607371-32.423895 42.72024-26.380388 77.094685 7.994057 45.534148 58.452544 116.329516 151.375462 208.932672 86.399767-98.646662 131.646129-172.671629 135.994896-218.493564zM495.311767 39.292069c33.383182-34.438397 85.69629-51.289869 138.425089-29.546035 50.77825 20.944429 72.649989 80.004522 67.533793 133.884466-6.171412 65.135576-62.89724 154.637037-169.857721 272.917103l-19.601428 21.647906-21.008381-20.272928c-114.538848-110.637748-177.468064-195.982299-188.755672-260.31847-9.848678-56.11828 7.674295-112.108654 56.27816-136.954183 43.167907-22.063597 98.390853-9.305082 136.98616 18.642141zM968.943651 359.629918c45.726006 24.717624 79.716736 75.431921 74.184848 137.561731-5.308054 59.156021-58.196734 99.573973-114.155133 109.51858-67.885531 12.055038-175.965181-23.150789-328.907477-104.146574l-24.174029-12.790491 12.087014-24.525766c76.327255-154.828894 142.99769-246.792525 204.647858-277.425752 53.624134-26.636198 115.594063-23.854266 154.924823 20.177 35.205827 39.458665 38.691235 102.803572 21.392096 151.631272z m-49.786987 191.601556c33.607015-5.979555 65.135576-30.057654 67.725651-58.99614 4.029005-45.310315-27.627461-81.155666-63.376884-90.36482l-37.827877-9.720773 21.168263-32.807609c19.441546-30.121606 22.447312-86.975339-1.470907-113.803395-19.761309-22.12755-54.551444-23.662408-87.64684-7.258603-44.127194 21.935692-100.980927 98.07109-166.756027 227.191097 129.18396 66.190791 219.836565 94.329872 268.184621 85.760243z" /></svg>