<svg t="1613639513873" class="icon" viewBox="0 0 1024 1024" version="1.1" xmlns="http://www.w3.org/2000/svg" p-id="15059" data-spm-anchor-id="a313x.7781069.0.i9" width="200" height="200"><path d="M729.6 243.2h140.8c12.8 0 19.2-12.8 6.4-19.2l-140.8-140.8c-6.4-6.4-19.2 0-19.2 6.4v140.8c0 6.4 6.4 12.8 12.8 12.8z" p-id="15060" data-spm-anchor-id="a313x.7781069.0.i11" class="selected"></path><path d="M889.6 307.2h-192c-25.6 0-44.8-19.2-44.8-44.8v-192c0-6.4-6.4-12.8-12.8-12.8H249.6c-70.4 0-128 64-128 134.4v640c0 70.4 57.6 134.4 134.4 134.4h518.4c70.4 0 134.4-57.6 134.4-134.4V320c-6.4-6.4-12.8-12.8-19.2-12.8z m-204.8 147.2l-224 236.8c-12.8 12.8-32 12.8-44.8 0L339.2 601.6c-12.8-12.8-12.8-32 0-44.8 12.8-12.8 32-12.8 44.8 0l64 64 204.8-211.2c12.8-12.8 32-12.8 44.8 0 0 12.8 0 32-12.8 44.8z" p-id="15061" data-spm-anchor-id="a313x.7781069.0.i10" class="selected"></path></svg>