<svg t="1613724339488" class="icon" viewBox="0 0 1024 1024" version="1.1" xmlns="http://www.w3.org/2000/svg" p-id="2979" width="200" height="200"><path d="M150.166588 240.941176h723.666824a60.235294 60.235294 0 0 1 60.054588 64.933648l-51.621647 662.588235a60.235294 60.235294 0 0 1-60.054588 55.536941H201.788235a60.235294 60.235294 0 0 1-60.054588-55.536941l-51.621647-662.588235A60.235294 60.235294 0 0 1 150.166588 240.941176z m581.692236 449.957648c4.879059-21.504 6.445176-72.884706 4.879058-96.075295-10.962824-167.695059-179.621647-249.976471-299.248941-215.642353 90.112 35.237647 181.729882 131.433412 182.392471 245.398589a292.743529 292.743529 0 0 1-2.770824 41.200941l-96.677647-11.504941 62.644706 82.100706 62.644706 82.221176 80.956235-58.428235 80.896-58.24753-75.715764-11.023058zM291.900235 567.235765c-5.421176 21.383529-8.071529 72.704-7.047529 95.894588 7.107765 168.056471 173.899294 255.096471 294.309647 224.195765-89.328941-37.948235-178.718118-136.673882-176.850824-250.578824a294.550588 294.550588 0 0 1 3.614118-41.020235l96.436706 14.095059-60.777412-83.787294-60.777412-83.968-82.160941 55.958588-82.221176 56.018823 75.474823 13.251765z" p-id="2980" data-spm-anchor-id="a313x.7781069.0.i0" class="selected"></path><path d="M60.235294 90.352941m30.117647 0l843.294118 0q30.117647 0 30.117647 30.117647l0 0q0 30.117647-30.117647 30.117647l-843.294118 0q-30.117647 0-30.117647-30.117647l0 0q0-30.117647 30.117647-30.117647Z" p-id="2981"></path><path d="M445.741176 30.117647m30.117648 0l72.282352 0q30.117647 0 30.117648 30.117647l0 0q0 30.117647-30.117648 30.117647l-72.282352 0q-30.117647 0-30.117648-30.117647l0 0q0-30.117647 30.117648-30.117647Z" p-id="2982"></path></svg>