<svg t="1613639418337" class="icon" viewBox="0 0 1024 1024" version="1.1" xmlns="http://www.w3.org/2000/svg" p-id="12131" width="200" height="200"><path d="M512 732.416l-173.568-114.5344c-12.9536-8.6016-31.232-0.256-31.232 14.1312v211.7632c0 23.296 30.976 35.328 49.8688 19.3536L512 732.416z" p-id="12132"></path><path d="M917.8112 114.6368l-270.4384 778.3936a42.8032 42.8032 0 0 1-70.4512 16.1792l-256.0512-253.5936a30.3104 30.3104 0 0 1 1.3824-44.3904l353.792-309.504a12.9536 12.9536 0 0 0 0-19.5072 13.2608 13.2608 0 0 0-16.896-0.512l-373.6064 293.3248a37.0688 37.0688 0 0 1-48.896-2.816L63.6928 400.9472A41.984 41.984 0 0 1 79.872 331.2128L863.4368 60.9792c33.6384-11.6224 65.9456 20.2752 54.3744 53.6576" p-id="12133"></path></svg>