<svg class="icon" width="200px" height="200.00px" viewBox="0 0 1024 1024" version="1.1" xmlns="http://www.w3.org/2000/svg"><path  d="M512 1023.972326a442.786637 442.786637 0 0 1-69.987963-5.673204 96.527487 96.527487 0 0 1-77.487661-66.224276 135.797127 135.797127 0 0 0-130.954148-95.94633 140.861499 140.861499 0 0 0-29.83275 3.210203 96.859577 96.859577 0 0 1-20.091444 2.103237 95.226801 95.226801 0 0 1-74.526525-36.197808 518.862916 518.862916 0 0 1-69.987963-121.046797 96.693532 96.693532 0 0 1 18.956803-100.291173 138.896633 138.896633 0 0 0 0-185.416904 96.665858 96.665858 0 0 1-18.956803-100.291173 484.104165 484.104165 0 0 1 69.987963-121.046797 98.353982 98.353982 0 0 1 76.297672-36.197808 97.025622 97.025622 0 0 1 20.20214 2.103237 137.097812 137.097812 0 0 0 29.722053 3.293225 137.761992 137.761992 0 0 0 131.064845-96.029352 96.41679 96.41679 0 0 1 77.487661-66.196602 558.381623 558.381623 0 0 1 69.185412-4.261821 591.12016 591.12016 0 0 1 70.679817 4.261821 96.41679 96.41679 0 0 1 77.487662 66.196602 133.251104 133.251104 0 0 0 62.405242 77.487662 138.896633 138.896633 0 0 0 68.714951 18.458668 136.433633 136.433633 0 0 0 29.666704-3.293226 97.025622 97.025622 0 0 1 20.202141-2.103236 92.016598 92.016598 0 0 1 74.388155 36.197807 655.683987 655.683987 0 0 1 68.106119 122.92864 96.665858 96.665858 0 0 1-18.956803 100.291174 138.896633 138.896633 0 0 0 0 185.416904 96.693532 96.693532 0 0 1 18.956803 100.291173 480.28513 480.28513 0 0 1-69.987962 121.046797 97.163993 97.163993 0 0 1-75.246055 36.197808 88.557327 88.557327 0 0 1-19.371915-2.103237 136.433633 136.433633 0 0 0-29.666705-3.293226 137.928037 137.928037 0 0 0-131.120193 96.029352 96.499813 96.499813 0 0 1-77.487661 66.224277c-22.720489 2.047888-46.963058 3.874383-69.849592 3.874383z m-8.911081-691.854121a193.719154 193.719154 0 1 0 193.719154 193.719154 193.912873 193.912873 0 0 0-193.719154-193.719154z m0 304.415813a110.696659 110.696659 0 1 1 110.696659-110.696659 110.862704 110.862704 0 0 1-110.696659 110.696659z" /></svg>