<svg class="icon" width="200px" height="200.00px" viewBox="0 0 1024 1024" version="1.1" xmlns="http://www.w3.org/2000/svg"><path  d="M381.63456 257.3312h247.27552c76.53376 0 134.92224-165.56032 134.92224-165.56032 0-49.54112-4.97664-87.06048-90.0096-89.72288-84.93056-2.6624-105.28768 59.26912-166.33856 59.26912-62.54592 0-93.85984-48.66048-170.84416-59.26912-77.02528-10.62912-89.96864 40.1408-89.96864 89.72288 0.04096-0.02048 58.38848 165.56032 134.9632 165.56032z m260.79232 51.15904H381.63456c-288.80896 0-359.7312 565.92384-359.7312 565.92384 0 74.32192 60.39552 148.97152 134.88128 148.97152h710.43072c74.52672 0 134.88128-74.67008 134.88128-148.97152 0.04096 0-70.90176-565.92384-359.66976-565.92384z m29.61408 434.93376c17.408 0 31.5392 14.11072 31.5392 31.4368 0 17.36704-14.15168 31.4368-31.5392 31.4368h-127.8976v82.51392a31.47776 31.47776 0 0 1-62.95552 0v-82.49344H352.47104a31.45728 31.45728 0 1 1 0-62.8736h128.7168v-39.89504H352.47104a31.45728 31.45728 0 1 1 0-62.8736h87.01952l-89.06752-157.88032a31.35488 31.35488 0 0 1 11.48928-42.92608 31.5392 31.5392 0 0 1 43.04896 11.44832l107.29472 189.35808h5.4272l107.19232-189.35808a31.49824 31.49824 0 0 1 43.008-11.44832 31.3344 31.3344 0 0 1 11.5712 42.92608l-89.10848 157.88032h81.69472c17.408 0 31.5392 14.09024 31.5392 31.45728a31.5392 31.5392 0 0 1-31.5392 31.41632h-127.8976v39.89504l127.8976-0.02048z"  /></svg>