<svg class="icon" width="200px" height="198.07px" viewBox="0 0 1034 1024" version="1.1" xmlns="http://www.w3.org/2000/svg"><path d="M780.288 560.128c0-212.992-172.544-388.096-381.952-389.12-218.624-0.512-393.216 171.008-393.216 386.56 0 214.016 173.568 388.096 386.56 388.096 214.016 0.512 388.608-173.056 388.608-385.536z m-389.632 315.392c-174.08-0.512-315.392-143.872-314.88-318.976 0.512-174.08 143.872-315.392 317.952-314.88 174.08 0.512 316.416 142.848 315.392 316.928 0 176.128-141.312 317.952-318.464 316.928zM393.728 276.992c-153.6-0.512-281.6 125.44-282.624 278.528-0.512 157.696 123.904 284.672 280.576 285.184 155.648 0.512 282.624-125.44 283.136-281.088 0.512-155.136-125.44-282.112-281.088-282.624z m124.416 423.424c-49.664-6.656-90.112-18.432-123.904-36.352-38.912 19.456-83.456 31.744-132.096 38.912-4.096-12.8-16.384-35.328-25.6-46.08 41.472-4.608 78.848-11.776 111.616-24.576-20.992-18.432-38.912-40.96-54.272-67.584l23.552-8.192h-47.616v-46.08h98.816v-30.72h-115.712v-47.104h115.712V394.24h49.664v38.912h116.224v47.104h-116.224v30.72h56.832l8.192-1.536 33.28 19.456c-15.872 43.52-40.448 77.312-72.704 103.424 29.696 10.752 64.512 17.408 103.936 21.504-9.728 10.752-23.04 32.768-29.696 46.592zM343.552 557.056c12.8 20.992 30.72 37.888 53.248 52.224 20.992-13.824 38.912-30.72 51.712-52.224h-104.96zM784.896 621.056c-5.632 0-7.168 2.048-7.168 7.168-1.024 14.848-3.584 30.208-6.656 45.056-4.608 23.04-12.288 45.056-20.992 68.096h182.272c15.872 0 27.648-12.8 28.16-28.16 0.512-20.992 0.512-43.008 0-64 0-15.872-12.8-28.16-28.16-28.16h-147.456z m-453.632-422.4h598.016c20.48 0 31.744-12.288 32.768-31.744v-56.832c0-19.968-12.288-31.744-32.768-31.744h-599.04c-19.968 0-31.744 12.288-31.744 31.232v54.784c-1.024 22.528 10.752 34.304 32.768 34.304zM901.12 348.16v-57.344c0-19.968-12.288-31.744-32.768-31.744h-270.848c3.072 2.56 4.096 3.072 5.632 4.096 44.544 29.696 81.92 66.56 111.616 111.616 3.072 4.608 6.656 5.632 11.264 5.632h142.848c19.968-1.024 32.256-12.8 32.256-32.256z m-146.944 101.888c12.8 32.768 20.992 66.56 23.552 101.376 0.512 7.168 2.56 9.216 9.728 9.216h201.728c19.968 0 31.744-12.288 31.744-31.232v-56.832c0-20.992-12.288-32.768-32.768-32.768h-237.056c-0.512 4.096 2.048 7.168 3.072 10.24z m232.448 351.744h-260.096c-5.632 0-9.216 2.048-12.288 6.144-17.408 26.624-37.376 50.176-60.928 71.168-16.896 14.848-34.816 29.184-54.784 41.984 3.072 0.512 4.096 0.512 4.608 0.512h388.096c17.92 0 30.208-12.8 30.208-30.208v-54.272c0-24.576-10.752-35.328-34.816-35.328z" /></svg>