<?xml version="1.0" standalone="no"?><!DOCTYPE svg PUBLIC "-//W3C//DTD SVG 1.1//EN" "http://www.w3.org/Graphics/SVG/1.1/DTD/svg11.dtd"><svg t="1600678718091" class="icon" viewBox="0 0 1024 1024" version="1.1" xmlns="http://www.w3.org/2000/svg" p-id="5791" xmlns:xlink="http://www.w3.org/1999/xlink" width="200" height="200"><defs><style type="text/css"></style></defs><path d="M641.885122 308.589982c289.570722 0 357.705009 566.366264 357.705009 566.366264 0 72.39268-59.617501 149.043754-136.268575 149.043754H156.428324c-72.39268 0-136.268575-76.651073-136.268574-149.043754 0 0 72.39268-566.366264 357.705008-566.366264h264.020364z m-127.751789 119.235003h-34.067143v42.58393c-29.808751 0-55.359109 8.516786-72.392681 25.550357-25.550358 17.033572-38.325537 42.58393-38.325536 76.651074 0 38.325537 17.033572 68.134287 51.100715 85.167859l59.617502 21.291965v119.235003c-17.033572 0-29.808751-8.516786-38.325537-17.033572-12.775179-12.775179-17.033572-29.808751-21.291965-55.359108H365.08958c4.258393 42.58393 17.033572 72.39268 38.325536 93.684645 17.033572 17.033572 46.842323 25.550358 80.909467 29.80875V896.248211h34.067143v-46.842323c29.808751 0 55.359109-8.516786 76.651074-21.291964 25.550358-17.033572 42.58393-46.842323 42.583929-80.909467 0-34.067144-17.033572-63.875894-46.842322-80.909466l-8.516786-4.258393c-4.258393 0-25.550358-8.516786-63.875895-25.550358v-110.718217c12.775179 0 21.291965 4.258393 29.808751 12.775179 12.775179 8.516786 21.291965 25.550358 21.291965 46.842323h59.617501c-4.258393-38.325537-17.033572-63.875894-38.325536-80.909467-17.033572-12.775179-42.58393-21.291965-72.392681-25.550357V427.824985z m0 264.020364h4.258393c34.067144 12.775179 51.100716 29.808751 51.100716 51.100715 0 17.033572-8.516786 29.808751-21.291965 38.325537-8.516786 8.516786-21.291965 12.775179-38.325537 12.775179v-102.201431z m-34.067143-174.594112v102.201431c-34.067144-12.775179-51.100716-29.808751-51.100716-51.100715 0-17.033572 8.516786-34.067144 21.291965-42.58393 8.516786 0 17.033572-4.258393 29.808751-8.516786z m-229.95322-425.839296C250.11297 40.311225 262.888148-10.78949 339.539222 1.985689c76.651073 8.516786 106.459824 59.617501 170.335718 59.617501 59.617501 0 80.909466-63.875894 166.077326-59.617501 85.167859 4.258393 89.426252 38.325537 89.426252 89.426252 0 0-59.617501 166.077326-136.268575 166.077325H382.123151C305.472078 257.489266 250.11297 91.411941 250.11297 91.411941z" p-id="5792"></path></svg>