<?xml version="1.0" standalone="no"?><!DOCTYPE svg PUBLIC "-//W3C//DTD SVG 1.1//EN" "http://www.w3.org/Graphics/SVG/1.1/DTD/svg11.dtd"><svg t="1600681175127" class="icon" viewBox="0 0 1332 1024" version="1.1" xmlns="http://www.w3.org/2000/svg" p-id="17030" xmlns:xlink="http://www.w3.org/1999/xlink" width="260.15625" height="200"><defs><style type="text/css"></style></defs><path d="M520.054538 752.020349 520.054538 665.1146 591.797659 593.318497 520.054538 521.522394 520.054538 434.61785 635.417909 549.668143 635.467279 549.619977 679.187475 593.318497 635.467279 637.021834 635.417909 636.97126Z" p-id="17031"></path><path d="M307.004684 557.383117l310.984392 0 0 71.873169-310.984392 0 0-71.873169Z" p-id="17032"></path><path d="M1262.755988 470.847042 1026.072326 470.847042c-37.691027 0-68.24748 30.563677-68.24748 68.266746l0 116.437471c0 37.703069 30.555248 68.266746 68.24748 68.266746l236.683661 0c37.691027 0 68.246276-30.563677 68.246276-68.266746l0-116.437471C1331.002263 501.410719 1300.447015 470.847042 1262.755988 470.847042zM1293.383485 628.982944c0 30.101284-24.394828 54.503338-54.487684 54.503338L1049.931309 683.486282c-30.092855 0-54.487684-24.402053-54.487684-54.503338l0-68.75563c0-30.101284 24.396033-54.503338 54.487684-54.503338l188.964492 0c30.092855 0 54.487684 24.402053 54.487684 54.503338L1293.383485 628.982944z" p-id="17033"></path><path d="M1037.563508 593.319701a29.991 30 0 1 0 72.227188 0 29.991 30 0 1 0-72.227188 0Z" p-id="17034"></path><path d="M957.815213 0 411.33445 175.692376 411.33445 220.095323 452.93414 220.095323 922.290447 69.197552 970.776659 220.095323 1028.534808 220.095323Z" p-id="17035"></path><path d="M508.034736 891.937496c-31.452338 0-56.95137-25.506257-56.95137-56.968228L451.083365 787.704062l-26.90066 0 0 62.873369c0 37.703069 30.556452 68.26795 68.245071 68.26795l130.781279 0 0-26.907885L508.034736 891.937496z" p-id="17036"></path><path d="M1206.011731 859.769894c0 65.143187-41.856174 112.508337-106.977687 112.508337l-622.089198 1.243885c-65.121512 0-112.438497-48.510295-112.438497-113.652277l-0.170989-131.718106-0.349203-0.350407-0.018062-44.422213-56.96582 0 0 119.274443 0 84.814144c0 75.404934 61.112905 136.532288 136.497368 136.532288l682.467573 0c75.384463 0 136.491347-61.127354 136.491347-136.532288L1262.458563 723.81921l-55.974806-0.001204L1206.011731 859.769894z" p-id="17037"></path><path d="M1125.967216 170.666263 443.499643 170.666263c-75.384463 0-136.497368 61.128559-136.497368 136.533492l0 204.086179 56.894775 0-0.073453-182.845013c0-65.143187 44.642572-108.628573 109.770105-108.628573l628.037688 0c65.121512 0 103.815595 46.458427 103.815595 111.601614l1.034363 139.431876 55.974806 0L1262.456155 307.20096C1262.457359 231.796026 1201.350475 170.666263 1125.967216 170.666263z" p-id="17038"></path></svg>